<?xml version="1.0" encoding="UTF-8"?>
<svg version="1.1" xmlns="http://www.w3.org/2000/svg" width="2560" height="1597">
<path d="M0 0 C2.13792242 0.00565843 4.27583684 0.00846772 6.41376495 0.0110817 C28.46169021 0.0502205 50.32443536 0.61077094 72.22498322 3.31805801 C72.94315216 3.40527115 73.66132111 3.49248428 74.40125275 3.58234024 C143.64331574 12.0382557 209.28089413 31.43612506 272.22498322 61.31805801 C273.21691681 61.78840469 274.2088504 62.25875137 275.23084259 62.74335098 C303.20918514 76.11967297 329.9700618 92.34484737 355.22498322 110.31805801 C355.94879181 110.83078262 356.6726004 111.34350723 357.41834259 111.87176895 C371.13825846 121.60904939 384.37636656 131.78280626 397.15857697 142.72040176 C399.88269307 145.04458543 402.67168314 147.27729385 405.47498322 149.50555801 C418.91875755 160.51719654 431.06052098 173.05812761 443.34998322 185.31805801 C443.98458466 185.94998062 444.6191861 186.58190323 445.27301788 187.23297501 C451.80930972 193.74833685 458.28772296 200.2431803 464.22498322 207.31805801 C465.17407908 208.41304476 466.12457057 209.50682358 467.07654572 210.59930801 C479.81383661 225.34739136 491.84585388 240.49523118 503.22498322 256.31805801 C503.80925079 257.12791153 504.39351837 257.93776505 504.99549103 258.77215958 C513.9858616 271.27726364 522.32040397 284.10115158 530.22498322 297.31805801 C530.68969025 298.0943959 531.15439728 298.8707338 531.63318634 299.67059708 C542.02000173 317.11895242 551.88110619 334.97601863 560.59998322 353.31805801 C560.97526154 354.10696426 561.35053986 354.89587051 561.73719025 355.70868301 C564.22498322 361.05185207 564.22498322 361.05185207 564.22498322 363.31805801 C564.74705353 363.00167374 565.26912384 362.68528946 565.80701447 362.35931778 C571.93106188 358.65311614 578.072941 354.97758126 584.22498322 351.31805801 C585.27975861 350.68722305 585.27975861 350.68722305 586.35584259 350.04364395 C616.15091832 332.32149646 649.26781392 320.89269385 683.22498322 314.31805801 C684.07125275 314.15370255 684.91752228 313.98934708 685.78943634 313.82001114 C764.98099916 298.92765106 849.38768044 317.25261108 915.9466629 362.2404213 C938.20424505 377.53244011 959.82795789 395.57794759 977.22498322 416.31805801 C977.90754181 417.12992569 977.90754181 417.12992569 978.60388947 417.95819473 C1022.99788593 470.99539575 1054.6343909 541.0738748 1053.22498322 611.31805801 C1054.4044754 611.4044252 1055.58396759 611.49079239 1056.79920197 611.57977676 C1101.67107095 615.18113772 1146.08442712 627.15416664 1187.22498322 645.31805801 C1188.30989044 645.79613907 1189.39479767 646.27422012 1190.51258087 646.76678848 C1205.99794192 653.64844732 1220.96610048 661.12968228 1235.55945587 669.74481583 C1238.16244427 671.2811464 1240.77660603 672.79680537 1243.39295197 674.31024551 C1259.75855743 683.86211841 1275.23049123 694.74263975 1290.22498322 706.31805801 C1291.03129181 706.93729141 1291.03129181 706.93729141 1291.85388947 707.56903458 C1304.61159375 717.38432985 1316.79136341 727.80589956 1328.56775665 738.77850723 C1330.40774789 740.48784499 1332.25785649 742.18590013 1334.10779572 743.88446426 C1342.03177784 751.19432358 1349.5791374 758.69169955 1356.77625275 766.71649551 C1358.27254607 768.37063846 1359.78982236 770.00286753 1361.31482697 771.63055801 C1367.57356165 778.31414709 1373.51131424 785.15679841 1379.22498322 792.31805801 C1380.14589506 793.4477501 1381.06782433 794.57661333 1381.99060822 795.70477676 C1398.75239907 816.28592096 1414.01213517 838.29166737 1427.22498322 861.31805801 C1427.787659 862.29113907 1427.787659 862.29113907 1428.36170197 863.28387833 C1465.7866437 928.28018494 1485.73466762 997.43221888 1485.4857254 1072.5409584 C1485.47498049 1076.3815319 1485.48571253 1080.2216389 1485.49842072 1084.06219864 C1485.51025148 1104.06042895 1484.83171089 1124.1244819 1481.47498322 1143.88055801 C1481.30434357 1144.90189835 1481.13370392 1145.92323868 1480.95789337 1146.97552872 C1471.41993264 1201.7746067 1447.27048322 1253.78101759 1414.22498322 1298.31805801 C1413.79234161 1298.90232559 1413.35970001 1299.48659317 1412.91394806 1300.08856583 C1407.16467072 1307.80580556 1401.04774794 1315.1777631 1394.77185822 1322.46796036 C1393.64784217 1323.81230909 1392.55241601 1325.18072304 1391.47498322 1326.56268692 C1384.79751128 1335.03929536 1377.2671122 1342.57958275 1369.623909 1350.17987442 C1367.35448303 1352.43857945 1365.09595048 1354.70778127 1362.83826447 1356.97821426 C1355.95905936 1363.86336461 1349.11019425 1370.57740298 1341.43201447 1376.5763588 C1339.22504112 1378.31801232 1337.16088325 1380.15702243 1335.09998322 1382.06805801 C1328.18065044 1388.27456432 1320.66974864 1393.76500828 1313.22498322 1399.31805801 C1312.49037872 1399.86687637 1311.75577423 1400.41569473 1310.998909 1400.98114395 C1299.75700476 1409.34108247 1288.18980594 1417.03333555 1276.22498322 1424.31805801 C1275.53114532 1424.74151505 1274.83730743 1425.16497208 1274.12244415 1425.60126114 C1182.1911108 1481.40565878 1081.69543618 1503.55983006 975.21735382 1503.44389915 C972.73310306 1503.44494585 970.24885246 1503.44642972 967.76460218 1503.44830352 C962.4061294 1503.45135882 957.04766998 1503.45139705 951.68919802 1503.44861998 C943.66737209 1503.4444816 935.64555426 1503.44622227 927.62372812 1503.44900262 C913.94347416 1503.45357663 900.26322395 1503.45346538 886.58296967 1503.45072174 C872.73680801 1503.44796182 858.89064881 1503.44739707 845.044487 1503.44945908 C843.72830775 1503.44965283 843.72830775 1503.44965283 842.38553903 1503.44985051 C838.8112858 1503.45038383 835.23703258 1503.45093255 831.66277936 1503.45150078 C798.43941358 1503.45677888 765.21604943 1503.4571538 731.99268341 1503.45435333 C731.00995546 1503.45427054 730.02722752 1503.45418774 729.01471993 1503.45410244 C727.53824492 1503.45397804 727.53824492 1503.45397804 726.03194213 1503.45385114 C696.00673004 1503.45132486 665.98151863 1503.450678 635.95630646 1503.45187378 C633.94326606 1503.45195126 631.93022567 1503.45202842 629.91718528 1503.45210525 C621.82698136 1503.45241573 613.73677744 1503.4527344 605.64657353 1503.45306501 C583.03312269 1503.45398188 560.41967186 1503.45455258 537.80622101 1503.45485115 C536.26176128 1503.45487162 536.26176128 1503.45487162 534.68610035 1503.4548925 C501.8925223 1503.45530159 469.09894449 1503.45417586 436.30536652 1503.45200157 C434.71064824 1503.4518962 434.71064824 1503.4518962 433.08371344 1503.4517887 C415.82048596 1503.45064384 398.55725849 1503.44942433 381.29403102 1503.44819852 C312.83221234 1503.44334244 244.37039563 1503.44356783 175.90857697 1503.44842911 C158.65391795 1503.44965036 141.39925894 1503.45086144 124.14459991 1503.45200157 C123.08207147 1503.45207202 122.01954303 1503.45214247 120.92481675 1503.45221505 C88.16445961 1503.45437223 55.40410263 1503.45528532 22.64374542 1503.45485115 C21.61486808 1503.45483757 20.58599073 1503.45482398 19.52593528 1503.45480999 C-3.06267315 1503.45449747 -25.65128157 1503.45386374 -48.23988999 1503.45294065 C-56.32272685 1503.45261153 -64.4055637 1503.45229844 -72.48840056 1503.45198994 C-74.4990768 1503.45191255 -76.50975303 1503.45183382 -78.52042927 1503.45175374 C-108.5352043 1503.45056165 -138.54997857 1503.45157366 -168.5647535 1503.45410244 C-169.54748145 1503.45418523 -170.5302094 1503.45426803 -171.54271698 1503.45435333 C-172.52362054 1503.45443601 -173.5045241 1503.4545187 -174.51515201 1503.45460389 C-207.64550159 1503.45736597 -240.7758492 1503.45633966 -273.9061985 1503.45107259 C-277.46897252 1503.45052027 -281.03174654 1503.44998356 -284.59452057 1503.44945908 C-285.46884626 1503.44932887 -286.34317195 1503.44919866 -287.24399236 1503.44906451 C-301.04856492 1503.44709759 -314.85313503 1503.44845951 -328.65770737 1503.45122808 C-342.25483536 1503.45388333 -355.85195924 1503.45292674 -369.44908671 1503.44821399 C-377.40428633 1503.44556138 -385.35947461 1503.44557275 -393.31467366 1503.44969559 C-399.24709978 1503.45245836 -405.17951645 1503.44991398 -411.11194175 1503.44543932 C-413.47730641 1503.44444271 -415.84267254 1503.4450699 -418.20803601 1503.44764525 C-440.83263555 1503.47050517 -463.551294 1503.22890089 -486.08751678 1501.06805801 C-486.75681213 1501.00492416 -487.42610748 1500.94179031 -488.11568451 1500.87674332 C-575.80663941 1492.50891153 -661.07250646 1462.02185039 -784.19298553 1373.65399551 C-786.30968729 1371.73903689 -788.44637842 1369.85594226 -790.59923553 1367.98212051 C-802.12834627 1357.9114874 -812.9926528 1347.29385437 -823.28087616 1335.96063614 C-824.59723703 1334.51349955 -825.92727884 1333.07883278 -827.25939178 1331.64618301 C-833.02635303 1325.38841655 -838.25575822 1318.76325414 -843.44591522 1312.02801895 C-844.63443342 1310.49892611 -845.84767931 1308.98912799 -847.06407928 1307.48212051 C-861.40846897 1289.49001661 -873.95659911 1269.59630137 -884.77501678 1249.31805801 C-885.23956268 1248.44939102 -885.70410858 1247.58072403 -886.18273163 1246.6857338 C-902.98117642 1214.94761732 -914.920605 1180.65297212 -921.02501678 1145.25555801 C-921.1760788 1144.39663956 -921.32714081 1143.5377211 -921.48278046 1142.65277481 C-924.7918253 1122.14714836 -925.12541875 1101.52037444 -925.09069061 1080.80585098 C-925.08607805 1077.82815746 -925.09293069 1074.85087433 -925.11119843 1071.8732338 C-925.67402648 979.13163786 -894.52952498 890.69013082 -811.77501678 772.31805801 C-810.90597823 771.27554664 -810.03751831 770.23255273 -809.16954803 769.18915176 C-803.35474002 762.22586743 -797.34884539 755.47381756 -791.17101288 748.83172989 C-789.7707865 747.31347113 -788.39016513 745.77938399 -787.01329803 744.23993301 C-769.5730868 724.84454115 -749.67854888 707.84986306 -728.77501678 692.31805801 C-727.70211395 691.51368301 -727.70211395 691.51368301 -726.60753632 690.69305801 C-696.32477684 668.04054654 -662.75895086 650.25619309 -627.08751678 637.69305801 C-625.62523651 637.17799698 -625.62523651 637.17799698 -624.13341522 636.65253067 C-623.22752655 636.34363907 -622.32163788 636.03474747 -621.38829803 635.71649551 C-620.59206024 635.44498672 -619.79582245 635.17347794 -618.97545624 634.89374161 C-616.77501678 634.31805801 -616.77501678 634.31805801 -612.77501678 634.31805801 C-612.84720428 633.56524551 -612.91939178 632.81243301 -612.99376678 632.03680801 C-618.97108025 563.62977616 -604.77879233 490.15195321 -583.77501678 425.31805801 C-583.19348846 423.51981583 -583.19348846 423.51981583 -582.6002121 421.68524551 C-573.19047567 392.89345574 -561.32751548 365.36364718 -547.77501678 338.31805801 C-547.19461639 337.15467911 -546.614216 335.9913002 -546.01622772 334.79266739 C-529.65761981 302.14852185 -509.94329614 271.32719362 -487.77501678 242.31805801 C-487.28984589 241.68126114 -486.80467499 241.04446426 -486.30480194 240.38837051 C-479.44585551 231.42279835 -472.18909245 222.82729937 -464.77501678 214.31805801 C-464.11630585 213.55751114 -463.45759491 212.79696426 -462.77892303 212.01337051 C-458.1779163 206.72168147 -453.48816892 201.50988967 -448.77501678 196.31805801 C-448.33029022 195.82676407 -447.88556366 195.33547012 -447.42736053 194.82928848 C-437.77250744 184.18272868 -427.93827477 173.50606531 -416.95079803 164.21258926 C-414.5090503 162.08647139 -412.15437909 159.88072185 -409.79503632 157.66400528 C-403.33000736 151.59259719 -396.70294397 145.86039976 -389.77501678 140.31805801 C-388.5716654 139.32511581 -387.36994663 138.33019292 -386.16954803 137.33368301 C-377.09360843 129.82432852 -367.75959466 122.78573526 -358.13878632 115.9904213 C-355.7281034 114.28486686 -353.327532 112.56570869 -350.92736053 110.84540176 C-325.56775284 92.76649607 -298.55579034 77.34798724 -270.77501678 63.31805801 C-269.41932587 62.63211563 -269.41932587 62.63211563 -268.03624725 61.93231583 C-207.28636828 31.44213267 -140.27980124 12.34319439 -72.90001678 4.06805801 C-71.68016083 3.916996 -70.46030487 3.76593399 -69.20348358 3.61029434 C-65.06418742 3.13034064 -60.92386127 2.70569083 -56.77501678 2.31805801 C-55.84248077 2.23085495 -54.90994476 2.14365189 -53.94915009 2.0538063 C-35.96748752 0.42851796 -18.04453342 -0.04858662 0 0 Z " fill="#F7981F" transform="translate(1021.775016784668,25.681941986083984)"/>
<path d="M0 0 C30.03 0 60.06 0 91 0 C92.21171928 4.24101747 93.26089837 7.94430415 93.94213867 12.20874023 C94.09958054 13.18024521 94.2570224 14.15175018 94.41923523 15.1526947 C94.66610832 16.71486473 94.66610832 16.71486473 94.91796875 18.30859375 C95.09830154 19.42460464 95.27863434 20.54061554 95.46443176 21.69044495 C96.04277476 25.27216848 96.61562542 28.85473846 97.1875 32.4375 C99.7836039 48.65939776 102.47885426 64.85675598 105.33203125 81.03515625 C107.8660568 95.40765907 110.327683 109.79051098 112.71875 124.1875 C112.87391397 125.12142641 113.02907795 126.05535282 113.18894386 127.01758003 C114.45352767 134.63269698 115.71382431 142.24852223 116.97393799 149.86437988 C118.07437848 156.51408534 119.17649741 163.1635095 120.28125 169.8125 C120.43669785 170.74822845 120.59214569 171.68395691 120.75230408 172.64804077 C122.93591755 185.77721427 125.18827979 198.89281195 127.5 212 C129.97815583 226.05085885 132.38056717 240.11265581 134.71875 254.1875 C134.87415756 255.12282562 135.02956512 256.05815125 135.18968201 257.02182007 C136.45402093 264.63552345 137.7140585 272.24993757 138.97393799 279.86437988 C140.07437848 286.51408531 141.17643336 293.16352016 142.28125 299.8125 C142.43651091 300.74689911 142.59177181 301.68129822 142.75173759 302.64401245 C145.08687763 316.68059581 147.50097763 330.70190798 149.96946907 344.71560669 C153.23862848 363.27560945 156.38158707 381.85617417 159.50695801 400.44085693 C160.24392776 404.82140765 160.98239489 409.20170596 161.72070312 413.58203125 C163.14852836 422.05445334 164.57481679 430.52713308 166 439 C168.79784185 425.568325 171.21306475 412.10782252 173.37612915 398.56005859 C174.24347822 393.13110181 175.12437695 387.70433823 176.00390625 382.27734375 C176.17772324 381.20322235 176.35154022 380.12910095 176.53062439 379.02243042 C177.91111075 370.50653539 179.342056 362.00082092 180.8125 353.5 C181.29461789 350.71099737 181.77638374 347.92193417 182.2578125 345.1328125 C182.38756973 344.38114304 182.51732697 343.62947357 182.65101624 342.85502625 C184.73947986 330.73379367 186.78170837 318.60464364 188.83211899 306.47692871 C189.1883684 304.36986378 189.54468807 302.26281075 189.90103149 300.15576172 C190.99319416 293.69781036 192.08520059 287.23983261 193.17699146 280.78181839 C194.70696895 271.73200262 196.23794322 262.68235584 197.76953125 253.6328125 C197.93881417 252.63258371 197.93881417 252.63258371 198.11151695 251.61214828 C198.68017542 248.25219229 199.24885143 244.89223927 199.8175354 241.5322876 C200.84710199 235.44925474 201.87651197 229.36619538 202.90593529 223.28313828 C203.47895059 219.89709112 204.05197579 216.51104565 204.625 213.125 C204.85416671 211.77083334 205.08333338 210.41666667 205.3125 209.0625 C205.77083333 206.35416667 206.22916667 203.64583333 206.6875 200.9375 C206.80093781 200.26718561 206.91437563 199.59687122 207.03125095 198.90624428 C207.2604144 197.55209668 207.48957789 196.19794909 207.71874142 194.8438015 C208.29170761 191.45809316 208.86467315 188.07238471 209.43763733 184.68667603 C210.46829516 178.59640883 211.49895758 172.5061424 212.52964497 166.4158802 C213.10179786 163.03506653 213.67394683 159.65425219 214.24609375 156.2734375 C214.35940977 155.60385387 214.47272579 154.93427025 214.58947563 154.24439621 C215.85680403 146.75572384 217.12405033 139.2670376 218.39111328 131.77832031 C218.5060935 131.09875432 218.62107372 130.41918833 218.73953819 129.71902943 C219.20425758 126.97239278 219.66897465 124.22575573 220.13367844 121.47911644 C221.3980097 114.00628134 222.66254676 106.53348119 223.92773438 99.06079102 C224.26731065 97.05505619 224.60688363 95.0493208 224.94645309 93.04358482 C225.17199614 91.71137094 225.39754392 90.37915785 225.62309647 89.04694557 C227.00335425 80.89415838 228.38185769 72.74107763 229.75794506 64.58758545 C230.67629235 59.14632199 231.59554117 53.70521134 232.51541615 48.26420593 C233.05434792 45.07610715 233.59261726 41.88789884 234.12991333 38.69952393 C234.7207049 35.19398936 235.31329334 31.68876265 235.90625 28.18359375 C236.07454819 27.1821785 236.24284637 26.18076324 236.41624451 25.14900208 C237.84131674 16.74271622 239.42786298 8.38473079 241 0 C272.68 0 304.36 0 337 0 C340.97503128 22.14660286 344.94455618 44.27443024 348.65759277 66.46310425 C349.81929078 73.40216572 350.98859334 80.33994165 352.16015625 87.27734375 C352.27863796 87.9790954 352.39711967 88.68084705 352.51919174 89.40386391 C355.02934668 104.26020367 357.62982633 119.10017096 360.25 133.9375 C363.27044361 151.0418148 366.22150742 168.15399975 369.04360962 185.29214478 C371.39059433 199.53102299 373.89274136 213.73858796 376.44342041 227.94226074 C379.07461692 242.61034866 381.57435499 257.29659475 384 272 C386.56041471 287.52010033 389.21724553 303.01821071 392 318.5 C394.7827576 333.98180669 397.43851996 349.48006617 400 365 C402.53998135 380.37217552 405.13491032 395.73310668 407.84716797 411.07592773 C408.19542139 413.04641066 408.54245307 415.01710996 408.88818359 416.98803711 C409.36680379 419.71279704 409.85051408 422.43660113 410.3359375 425.16015625 C410.47518646 425.95583511 410.61443542 426.75151398 410.75790405 427.57130432 C410.89241974 428.31871384 411.02693542 429.06612335 411.16552734 429.83618164 C411.27907562 430.47527969 411.3926239 431.11437775 411.50961304 431.77284241 C412.1960002 434.89016097 413.11562005 437.9337969 414 441 C414.16397561 439.95750375 414.32795122 438.9150075 414.49689579 437.84092045 C421.36611615 394.25385409 428.65305317 350.73573238 435.90361094 307.21088862 C436.97342809 300.7886876 438.04271884 294.366399 439.11190987 287.9440937 C442.08357882 270.09461531 445.05573238 252.24521783 448.03008175 234.39618587 C448.21844395 233.26582508 448.40680616 232.13546429 448.60087631 230.97085014 C448.98249558 228.6807683 449.36411526 226.39068653 449.74573534 224.10060482 C449.9351041 222.96420943 450.12447287 221.82781404 450.31958008 220.65698242 C450.50918372 219.51918005 450.69878735 218.38137767 450.89413656 217.20909644 C453.99027983 198.62866808 457.08258505 180.04760311 460.17328279 161.46626823 C463.36052542 142.30481333 466.5507764 123.14386135 469.7441321 103.98342425 C471.53173313 93.25723346 473.31804912 82.53083222 475.10105705 71.80387688 C476.61220141 62.71261572 478.1260881 53.62181672 479.64364063 44.53162294 C480.4175026 39.89565539 481.19002482 35.25947466 481.95905876 30.62270355 C482.66157079 26.38721096 483.36775957 22.15234916 484.07699234 17.91797692 C484.33391011 16.37999657 484.58943384 14.84178262 484.84348344 13.30332588 C485.18667194 11.22629592 485.53475314 9.1501466 485.88416958 7.07415676 C486.17327698 5.33829065 486.17327698 5.33829065 486.46822494 3.56735653 C487 1 487 1 488 0 C490.76938966 -0.09517803 493.51377159 -0.12554265 496.28344727 -0.11352539 C497.58576797 -0.11374443 497.58576797 -0.11374443 498.91439819 -0.1139679 C501.79842586 -0.11326846 504.6823898 -0.10547463 507.56640625 -0.09765625 C509.56037867 -0.09579218 511.55435155 -0.09436823 513.54832458 -0.09336853 C518.80745702 -0.08954248 524.06656203 -0.07971145 529.32568359 -0.06866455 C534.68782175 -0.0584523 540.04996431 -0.05387131 545.41210938 -0.04882812 C555.94141833 -0.03808926 566.47070689 -0.0210118 577 0 C576.43505292 6.8641803 575.43467362 13.52155858 574.05395508 20.26611328 C573.85862183 21.24029709 573.66328857 22.2144809 573.46203613 23.21818542 C572.81899067 26.41980964 572.16921179 29.62002874 571.51953125 32.8203125 C571.06402655 35.08338885 570.60901366 37.34656425 570.15446472 39.60983276 C568.95585251 45.57253231 567.75182602 51.53412441 566.54626465 57.49542236 C564.40612977 68.08163105 562.27454287 78.66956303 560.14453125 89.2578125 C559.91359205 90.40481817 559.68265285 91.55182384 559.4447155 92.73358727 C556.8770555 105.49405053 554.34678985 118.25700329 551.9921875 131.05859375 C548.19782254 151.66918513 543.94775039 172.19069748 539.77636719 192.72753906 C537.28752354 204.98222652 534.80801944 217.23880302 532.33203125 229.49609375 C532.09065052 230.690993 531.84926979 231.88589226 531.60057449 233.11700058 C528.14575165 250.22856671 524.75256107 267.34872412 521.5 284.5 C516.05090959 313.22066327 510.1926679 341.85888233 504.38874435 370.50946426 C498.50652738 399.54868644 492.65214643 428.59041849 487.0625 457.6875 C482.58787632 480.97594089 477.97256741 504.23267935 473.26176071 527.47439957 C472.75383594 529.98106917 472.24661762 532.48788088 471.73953247 534.99472046 C470.94998862 538.89649467 470.15819228 542.7978048 469.36441994 546.69872093 C469.07177919 548.13782434 468.77970499 549.57704307 468.48822594 551.01638222 C468.08871505 552.98785731 467.68651868 554.95878763 467.28417969 556.9296875 C467.05913757 558.03554199 466.83409546 559.14139648 466.60223389 560.28076172 C466 563 466 563 465 566 C430.35 566 395.7 566 360 566 C353.23673357 528.80203464 353.23673357 528.80203464 351.44229126 517.28115845 C349.25159668 503.25729975 346.83078956 489.28077554 344.3125 475.3125 C340.83812972 456.02643642 337.58130003 436.70700459 334.375 417.375 C334.25563709 416.65547905 334.13627419 415.9359581 334.01329422 415.19463348 C333.41908209 411.61267982 332.82499171 408.03070597 332.23091125 404.44873047 C332.05889411 403.41161423 332.05889411 403.41161423 331.88340187 402.35354614 C331.65457546 400.97383187 331.42578368 399.59411186 331.19702721 398.21438599 C328.75489995 383.48722919 326.24183619 368.77305897 323.69921875 354.06298828 C322.93758146 349.64616722 322.18722483 345.22745001 321.4375 340.80859375 C318.8909121 325.80961864 316.32782935 310.81415678 313.68359375 295.83203125 C313.48174469 294.68819977 313.27989563 293.54436829 313.07192993 292.36587524 C312.86707977 291.20518524 312.66222961 290.04449524 312.45117188 288.84863281 C307.35051205 259.94786274 302.47064067 231.01564489 297.67280579 202.0632782 C295.97530953 191.82924421 294.25038014 181.60011365 292.5 171.375 C292.38184937 170.68174622 292.26369873 169.98849243 292.14196777 169.27423096 C290.98986915 162.5192667 289.8044514 155.78465565 288.36181641 149.08496094 C287.82857601 146.01217216 287.86476553 143.11039284 288 140 C287.34 140 286.68 140 286 140 C285.85304688 141.10988281 285.70609375 142.21976563 285.5546875 143.36328125 C284.08224074 154.19628239 282.36563899 164.97812355 280.5 175.75 C280.37920074 176.44750366 280.25840149 177.14500732 280.13394165 177.86364746 C280.00828827 178.58894653 279.88263489 179.31424561 279.75317383 180.06152344 C279.47995059 181.6386667 279.20675863 183.21581538 278.93359375 184.79296875 C278.78898209 185.62768707 278.64437042 186.4624054 278.49537659 187.32241821 C276.27162257 200.18234627 274.10157717 213.05148934 271.9250145 225.91947174 C271.56206921 228.06504665 271.19897384 230.21059612 270.83584595 232.35614014 C267.93029995 249.52531789 265.04042678 266.69698813 262.1875 283.875 C260.12545047 296.29086475 258.03431738 308.70100828 255.89837646 321.10437012 C253.17227271 336.93935652 250.4915846 352.78200327 247.8125 368.625 C247.69563843 369.31607094 247.57877686 370.00714188 247.45837402 370.71915436 C246.37506091 377.12563031 245.29189619 383.53213135 244.20889282 389.93865967 C242.62480963 399.30870594 241.03845839 408.67836584 239.45050049 418.0477562 C238.38336731 424.34428669 237.31658325 430.64087633 236.25 436.9375 C236.13420845 437.62108078 236.0184169 438.30466156 235.89911652 439.00895691 C232.97153284 456.29371337 230.06036908 473.58105578 227.1875 490.875 C225.20770906 502.78662437 223.21965305 514.69673557 221.18960571 526.59991455 C220.94704307 528.02309792 220.70510921 529.44638868 220.46395874 530.86981201 C218.47244809 542.61500769 216.22988323 554.29311303 214 566 C179.35 566 144.7 566 109 566 C106.06153871 552.48307806 103.17833396 539.05978541 100.71899414 525.46411133 C97.81650744 509.44075296 94.72929415 493.4604551 91.5 477.5 C88.55972757 462.95940092 85.73951498 448.40385082 83.0625 433.8125 C80.19356923 418.17639391 77.14656079 402.58255607 74 387 C70.67624038 370.53991105 67.48335208 354.06393364 64.453125 337.54736328 C61.93492978 323.83690724 59.26226256 310.16328723 56.5 296.5 C53.56034769 281.95927006 50.7395172 267.40386291 48.0625 252.8125 C45.19356923 237.17639391 42.14656079 221.58255607 39 206 C35.67624038 189.53991105 32.48335208 173.06393364 29.453125 156.54736328 C26.76076163 141.8886389 23.88031769 127.27380656 20.92697144 112.6656189 C17.9835841 98.09196322 15.19807898 83.49557321 12.51831055 68.87127686 C10.59578688 58.38884095 8.60679356 47.92368322 6.5 37.4765625 C6.29101074 36.43985413 6.08202148 35.40314575 5.86669922 34.33502197 C4.85056469 29.30557058 3.82638465 24.27788105 2.79296875 19.25195312 C2.42443176 17.4414159 2.05593979 15.63086951 1.6875 13.8203125 C1.51605469 12.99842438 1.34460938 12.17653625 1.16796875 11.32974243 C1.01328125 10.56624481 0.85859375 9.80274719 0.69921875 9.01611328 C0.56346436 8.35749298 0.42770996 7.69887268 0.2878418 7.02029419 C0 5 0 5 0 0 Z " fill="#FEFEFE" transform="translate(956,702)"/>
<path d="M0 0 C38.28 0 76.56 0 116 0 C117.8697212 5.60916361 119.64549008 11.10347629 121.13110352 16.80419922 C121.42112747 17.9023634 121.42112747 17.9023634 121.7170105 19.02271271 C122.35710964 21.44930972 122.99301706 23.87698418 123.62890625 26.3046875 C124.09064679 28.05871039 124.55264428 29.81266567 125.01487732 31.56655884 C126.27055956 36.33415086 127.52256545 41.1027015 128.77392578 45.87142944 C130.10950615 50.95847106 131.44853418 56.04460516 132.78710938 61.13085938 C135.91213357 73.00810792 139.03187304 84.88674154 142.15073395 96.76560974 C143.52969683 102.01732575 144.90914929 107.26891315 146.28857422 112.52050781 C150.34387284 127.95993853 154.39883119 143.39945855 158.45153713 158.83957005 C166.07342525 187.87730738 173.71527433 216.90972122 181.375 245.9375 C181.62421204 246.88192963 181.87342407 247.82635925 182.13018799 248.79940796 C182.88105685 251.64491938 183.63193438 254.49042852 184.3828125 257.3359375 C185.36720431 261.06640182 186.3515776 264.79687101 187.3359375 268.52734375 C187.6968964 269.8952537 187.6968964 269.8952537 188.0651474 271.29079819 C193.25572633 290.96204462 198.43303662 310.63677307 203.60813904 330.31209564 C209.3557942 352.16395102 215.11229522 374.01345136 220.87755394 395.86066914 C221.12340548 396.79231483 221.36925701 397.72396051 221.62255859 398.68383789 C221.86967402 399.62026973 222.11678944 400.55670156 222.3713932 401.52151012 C226.42952767 416.90023751 230.48403269 432.27992197 234.53787422 447.65978146 C235.94445099 452.99608935 237.35128711 458.33232869 238.75854492 463.66845703 C242.08731071 476.29088256 245.41414694 488.91381207 248.73621941 501.53800106 C250.19270917 507.07261416 251.65017247 512.60696621 253.11016846 518.14065552 C254.47594919 523.31742115 255.83891134 528.49492074 257.19974518 533.67298889 C257.70007132 535.57481095 258.20139965 537.47636969 258.70381927 539.37763977 C259.3943307 541.99135987 260.08114154 544.60602649 260.76708984 547.22094727 C260.96537195 547.96797441 261.16365406 548.71500154 261.36794472 549.48466587 C262.80228259 554.97563319 263.88159522 560.4079761 265 566 C233.98 566 202.96 566 171 566 C167.62486712 555.87460137 167.62486712 555.87460137 166.4243927 551.1164856 C166.15101578 550.03985153 165.87763885 548.96321747 165.59597778 547.85395813 C165.30753998 546.70348495 165.01910217 545.55301178 164.72192383 544.36767578 C164.40937149 543.13247696 164.09681915 541.89727814 163.77479553 540.62464905 C162.92468492 537.26432077 162.07887981 533.90292317 161.23408723 530.54125452 C160.52710586 527.72980369 159.81790116 524.91891574 159.10867995 522.10802925 C157.43667801 515.48131245 155.7680837 508.85374439 154.10180664 502.22558594 C152.38313189 495.38919088 150.6593823 488.55409014 148.93304807 481.71962559 C147.44843515 475.84154631 145.96658539 469.96277553 144.48704356 464.08341777 C143.6043695 460.57589723 142.72072838 457.068628 141.83457375 453.56198502 C140.84895207 449.66098946 139.86912585 445.75856111 138.88989258 441.85595703 C138.59538208 440.69333847 138.30087158 439.53071991 137.99743652 438.33287048 C137.73251907 437.27315536 137.46760162 436.21344025 137.19465637 435.12161255 C136.96257382 434.19952562 136.73049128 433.2774387 136.49137592 432.32740974 C136 430 136 430 136 427 C81.22 427 26.44 427 -30 427 C-30.66 430.3 -31.32 433.6 -32 437 C-32.55556276 439.32133243 -33.13182703 441.63785353 -33.7331543 443.94775391 C-33.89495587 444.57233459 -34.05675745 445.19691526 -34.2234621 445.84042263 C-34.75430545 447.88652676 -35.28917897 449.93155206 -35.82421875 451.9765625 C-36.206987 453.44757475 -36.58955015 454.91864038 -36.97192383 456.38975525 C-37.99514132 460.32282721 -39.02219766 464.25488675 -40.05025864 468.1866951 C-40.6884685 470.62870583 -41.32557032 473.07100297 -41.96231079 475.51339722 C-49.83638347 505.71353998 -57.88334465 535.86390339 -66 566 C-97.02 566 -128.04 566 -160 566 C-159.3035986 560.42878879 -158.47175979 555.49496521 -156.93725586 550.17773438 C-156.62390274 549.06538453 -156.62390274 549.06538453 -156.30421925 547.93056297 C-155.61331184 545.48334852 -154.9141338 543.03858104 -154.21484375 540.59375 C-153.72201723 538.8547244 -153.22969845 537.11555483 -152.737854 535.37625122 C-151.41885787 530.71753897 -150.09262757 526.06091509 -148.7649498 521.40467072 C-147.37275927 516.51754032 -145.98723055 511.6285215 -144.60083008 506.73974609 C-141.63836057 496.29844718 -138.66653138 485.8598296 -135.69064331 475.42234802 C-135.06062559 473.21263694 -134.43078466 471.00287557 -133.80102539 468.79309082 C-130.98854451 458.92563306 -128.17133805 449.05953561 -125.34667969 439.19555664 C-118.92979016 416.78486996 -112.5584759 394.36127454 -106.1875 371.9375 C-105.60491142 369.88707417 -105.02232068 367.83664896 -104.43972778 365.78622437 C-101.77260947 356.39922837 -99.10571019 347.01217016 -96.43900013 337.62505817 C-90.78060965 317.70695366 -85.11991971 297.78950279 -79.45905685 277.87210083 C-78.62211566 274.92735155 -77.78519123 271.98259752 -76.94827271 269.0378418 C-65.46934013 228.64843866 -53.98661033 188.2601154 -42.50300789 147.87203979 C-37.98395334 131.97839246 -33.46544174 116.08459084 -28.94723511 100.19070244 C-26.95091444 93.16821326 -24.95452007 86.14574504 -22.95812607 79.12327671 C-21.36753953 73.52823988 -19.77700255 67.93318897 -18.18658447 62.33810425 C-16.70412405 57.12281482 -15.22153239 51.90756272 -13.73884773 46.69233704 C-13.20005499 44.79708741 -12.66130908 42.90182447 -12.12261772 41.00654602 C-10.90241421 36.71354167 -9.68154823 32.42072895 -8.45901489 28.12838745 C-7.4137084 24.45770025 -6.37331643 20.78564923 -5.33468628 17.11306763 C-4.78753624 15.18417232 -4.24034698 13.25528814 -3.69311523 11.32641602 C-3.43808511 10.42158698 -3.18305498 9.51675795 -2.92029667 8.58450985 C-2.68338328 7.75096257 -2.4464699 6.91741529 -2.20237732 6.05860901 C-1.99386359 5.32154 -1.78534986 4.584471 -1.57051754 3.82506657 C-1 2 -1 2 0 0 Z " fill="#FEFEFE" transform="translate(701,702)"/>
<path d="M0 0 C0.98906342 0.00215515 1.97812683 0.0043103 2.99716187 0.00653076 C47.6253284 0.16230726 92.63605914 8.23838856 125.6875 40.4375 C158.51355387 73.49971253 161.0625 118.02576327 161.0625 162.3125 C131.3625 162.3125 101.6625 162.3125 71.0625 162.3125 C70.7325 154.3925 70.4025 146.4725 70.0625 138.3125 C67.31856895 117.32142749 62.16878097 97.28448458 44.765625 83.4921875 C42.57846837 81.99134554 40.36607437 80.62645217 38.0625 79.3125 C37.45148438 78.94640625 36.84046875 78.5803125 36.2109375 78.203125 C17.46415798 67.83256612 -10.17420752 66.05483845 -30.7734375 71.33984375 C-49.01454117 76.94729414 -63.78212359 85.74495942 -73.23754883 102.84887695 C-80.59349067 116.9020479 -83.30106017 130.71508147 -83.25317383 146.39697266 C-83.25002547 148.54511909 -83.27350865 150.69186761 -83.29882812 152.83984375 C-83.40391552 175.60867138 -75.91186485 195.01433046 -59.9375 211.3125 C-59.31875 211.96734375 -58.7 212.6221875 -58.0625 213.296875 C-37.36205869 233.49649918 -6.24881055 242.67999953 20.30499268 252.31213379 C28.67271906 255.3477706 37.036623 258.39379471 45.3973999 261.44851685 C48.54046021 262.59418465 51.68633393 263.73184486 54.83251953 264.86889648 C100.11757105 281.32563892 142.88063557 303.5532641 164.24609375 349.078125 C172.27531338 367.17046304 176.16432994 387.11836012 176.265625 406.859375 C176.27132507 407.75126526 176.27702515 408.64315552 176.28289795 409.56207275 C176.29229074 411.44452757 176.29885898 413.3269984 176.30273438 415.20947266 C176.31233283 418.01366083 176.3433665 420.81708027 176.375 423.62109375 C176.47094669 439.95987994 174.75473825 456.05279906 170.8125 471.9375 C170.60270508 472.7924707 170.39291016 473.64744141 170.17675781 474.52832031 C162.26406597 505.5282602 146.0391891 534.0515691 120.0625 553.3125 C119.53237305 553.70646973 119.00224609 554.10043945 118.45605469 554.50634766 C71.6942264 588.74317086 4.8322736 594.34459353 -51.03881836 586.08325195 C-90.18239676 579.68459844 -126.71132306 562.64107725 -150.9375 530.3125 C-169.10956713 504.98679176 -178.29799677 475.27971821 -181.8125 444.5 C-181.93262451 443.49670654 -182.05274902 442.49341309 -182.17651367 441.4597168 C-183.47990689 428.38445509 -182.9375 415.55150078 -182.9375 402.3125 C-152.9075 402.3125 -122.8775 402.3125 -91.9375 402.3125 C-91.6075 413.2025 -91.2775 424.0925 -90.9375 435.3125 C-87.45169028 460.46012724 -81.43423163 484.20059554 -61.375 501.5 C-40.08971318 517.54633851 -12.37831803 521.74820824 13.59863281 518.48999023 C35.28811381 515.43210886 54.01465234 506.66970002 68.22265625 489.73828125 C75.69134667 479.54474993 80.05241636 468.51202169 83.0625 456.3125 C83.4028125 455.06919922 83.4028125 455.06919922 83.75 453.80078125 C89.09717207 431.92936215 84.26291209 403.14259649 73.25 383.75 C55.94272662 355.82235431 28.08541546 345.08016794 -1.74298096 335.14801025 C-6.18855307 333.66637504 -10.62754398 332.16547233 -15.0670166 330.66567993 C-18.35259586 329.5558665 -21.63887381 328.44814378 -24.92529297 327.34082031 C-45.75509022 320.3168713 -66.18919803 313.05897575 -85.9375 303.3125 C-86.79263184 302.89645508 -87.64776367 302.48041016 -88.52880859 302.05175781 C-121.78363662 285.76341517 -151.5697598 260.71306282 -164.9375 225.3125 C-167.25733707 218.4038067 -169.17866563 211.38272346 -170.9375 204.3125 C-171.11442383 203.631875 -171.29134766 202.95125 -171.47363281 202.25 C-174.7283563 188.90247376 -175.3181189 175.35535787 -175.25 161.6875 C-175.24784485 160.90324646 -175.2456897 160.11899292 -175.24346924 159.31097412 C-175.07354569 120.60474808 -164.83550461 84.43908558 -139.9375 54.3125 C-139.3084375 53.54164063 -138.679375 52.77078125 -138.03125 51.9765625 C-134.0552025 47.25952432 -129.70995733 43.21214215 -124.9375 39.3125 C-124.02484375 38.55066406 -123.1121875 37.78882813 -122.171875 37.00390625 C-87.80867078 9.33202949 -43.20535819 -0.16954478 0 0 Z " fill="#FEFEFE" transform="translate(1762.9375,690.6875)"/>
<path d="M0 0 C0.66 0 1.32 0 2 0 C4.2104854 9.30428111 6.41930018 18.60895702 8.62622833 27.91408253 C9.65208258 32.23920661 10.67842143 36.56421424 11.70605469 40.88891602 C15.7627719 57.96280776 19.80395788 75.0390193 23.69140625 92.15234375 C27.33139872 108.17422726 31.0643716 124.17406864 34.80859375 140.171875 C34.96175379 140.82635298 35.11491384 141.48083095 35.27271509 142.15514159 C37.33659251 150.97427912 39.4020336 159.79305009 41.46801758 168.61169434 C43.07601459 175.47542704 44.68361705 182.33925213 46.29101562 189.203125 C46.52720261 190.21165512 46.52720261 190.21165512 46.76816106 191.24055958 C49.35966646 202.30686509 51.94724572 213.37408394 54.53195763 224.44197845 C56.09141247 231.11821621 57.65555152 237.79332171 59.22537518 244.46712875 C60.09392563 248.16384393 60.95814188 251.86156117 61.82100105 255.55960846 C62.20811512 257.21444097 62.59713003 258.86883018 62.98821831 260.52272797 C63.51160044 262.73698884 64.02827452 264.95270819 64.54321289 267.16894531 C64.96975914 268.9861911 64.96975914 268.9861911 65.40492249 270.84014893 C66 274 66 274 66 279 C22.11 279 -21.78 279 -67 279 C-65.68601689 271.7730929 -64.29444727 264.69427889 -62.55517578 257.57641602 C-62.3164314 256.58833199 -62.07768702 255.60024796 -61.83170795 254.58222198 C-61.03918088 251.30539746 -60.24223684 248.02966389 -59.4453125 244.75390625 C-58.87406987 242.39561223 -58.30311898 240.03724753 -57.73243713 237.67881775 C-56.50769687 232.61991412 -55.28111842 227.56146013 -54.05282593 222.50341797 C-52.10751023 214.49258421 -50.16630831 206.48075672 -48.22583008 198.46875 C-47.56173846 195.72695519 -46.8976253 192.98516561 -46.23350525 190.24337769 C-46.06782281 189.55934809 -45.90214038 188.87531849 -45.73143727 188.17056072 C-44.54337063 183.26578105 -43.35467993 178.36115286 -42.16578674 173.45657349 C-37.63455891 154.76245164 -33.11672723 136.06513511 -28.60955715 117.36519885 C-27.9714978 114.71804393 -27.33331034 112.0709199 -26.69511986 109.42379659 C-24.10141156 98.66541697 -21.50788904 87.90699273 -18.91680908 77.14797974 C-12.71674848 51.4051747 -6.50182176 25.66854386 0 0 Z " fill="#F79820" transform="translate(755,778)"/>
</svg>
