<?xml version="1.0" encoding="UTF-8"?>
<svg version="1.1" xmlns="http://www.w3.org/2000/svg" width="200" height="200">
<path d="M0 0 C10.75460827 6.77883553 17.11381968 16.9278197 20.57421875 29.00390625 C22.47145551 37.89829143 20.20542544 46.13555998 17.69091797 54.65429688 C15.69443591 61.77597145 15.25786676 67.80608906 18.875 74.4375 C21.04336193 77.05228939 22.62890796 78.80229572 26.0859375 79.30078125 C29.62803205 79.31891484 32.54435895 79.14541736 35.9375 78.0625 C39.07461077 74.92538923 39.39754694 71.28910608 40 67 C57.21218624 74.42998929 70.02107841 87.71701965 77 105 C78.84366228 110.62284447 79.3567003 115.97931149 79.3125 121.875 C79.30686035 122.66656494 79.3012207 123.45812988 79.29541016 124.27368164 C79.1709296 130.27771166 78.48253788 135.47587945 76 141 C75.62101563 141.86496094 75.24203125 142.72992188 74.8515625 143.62109375 C66.04113602 161.5729743 49.48648059 172.63955247 31 179 C28.24491277 179.60773983 25.8259404 179.88696238 23 180 C25.99272094 177.66061955 29.10544852 175.74034478 32.375 173.8125 C41.26513404 168.14222809 45.30163241 161.1226897 48 151 C49.31148126 140.32079542 43.93892676 130.3811478 37.58203125 122.16796875 C30.73948072 114.65699426 21.06166551 109.51671161 12.4921875 104.1953125 C2.86349108 98.17737724 -5.40815629 92.80433815 -10 82 C-14.17592812 87.92712378 -15.70685028 91.69588046 -15 99 C-12.52225483 105.88905784 -8.38767436 111.34864449 -3.671875 116.87109375 C-0.76614884 120.57114225 -0.6110167 124.16955908 -0.640625 128.70703125 C-1.25038362 132.59755636 -3.18834816 134.32223635 -6 137 C-9.93991113 138.96995556 -14.70507464 138.45307739 -19 138 C-22.58171981 135.95330297 -24.65990754 133.90860302 -26 130 C-26.38749213 127.67504723 -26.72982839 125.34148732 -27 123 C-34.76566871 129.70133848 -40.53154466 137.76662133 -42.0625 148.125 C-42.39931766 156.2086238 -39.73138008 162.96322602 -34.6796875 169.18359375 C-30.88016329 173.29238155 -26.53442881 176.73521125 -22 180 C-28.07887624 179.52561724 -32.55613819 178.19465244 -37.9375 175.375 C-38.98345337 174.83649414 -38.98345337 174.83649414 -40.05053711 174.28710938 C-53.22959994 167.3302574 -62.49003631 157.99196841 -68 144 C-73.90237418 124.34021231 -70.51065366 105.84732173 -61 88 C-55.61157958 78.64346254 -48.50765659 70.68527176 -41 63 C-40.39784668 62.3827002 -39.79569336 61.76540039 -39.17529297 61.12939453 C-32.9543343 54.7793246 -26.72507325 48.49727869 -19.9609375 42.72265625 C-10.82850553 34.69994211 0.28961533 24.751768 1.14453125 11.8125 C1.21799929 7.75172097 1.02033888 3.95381317 0 0 Z " fill="#E03F0F" transform="translate(98,8)"/>
</svg>
